<svg width="272" height="54" viewBox="0 0 272 54" fill="none" xmlns="http://www.w3.org/2000/svg">
<path d="M1.188 27.328C1.188 24.832 1.728 22.612 2.808 20.668C3.888 18.7 5.388 17.176 7.308 16.096C9.252 14.992 11.448 14.44 13.896 14.44C16.896 14.44 19.464 15.232 21.6 16.816C23.736 18.4 25.164 20.56 25.884 23.296H19.116C18.612 22.24 17.892 21.436 16.956 20.884C16.044 20.332 15 20.056 13.824 20.056C11.928 20.056 10.392 20.716 9.216 22.036C8.04 23.356 7.452 25.12 7.452 27.328C7.452 29.536 8.04 31.3 9.216 32.62C10.392 33.94 11.928 34.6 13.824 34.6C15 34.6 16.044 34.324 16.956 33.772C17.892 33.22 18.612 32.416 19.116 31.36H25.884C25.164 34.096 23.736 36.256 21.6 37.84C19.464 39.4 16.896 40.18 13.896 40.18C11.448 40.18 9.252 39.64 7.308 38.56C5.388 37.456 3.888 35.932 2.808 33.988C1.728 32.044 1.188 29.824 1.188 27.328ZM51.5419 14.728V40H45.3859V29.596H35.8099V40H29.6539V14.728H35.8099V24.628H45.3859V14.728H51.5419ZM62.1419 14.728V40H55.9859V14.728H62.1419ZM72.7591 35.248H80.8231V40H66.6031V14.728H72.7591V35.248ZM89.9153 35.248H97.9793V40H83.7593V14.728H89.9153V35.248ZM107.072 19.66V24.772H115.316V29.524H107.072V35.068H116.396V40H100.916V14.728H116.396V19.66H107.072ZM129.86 14.728C132.524 14.728 134.852 15.256 136.844 16.312C138.836 17.368 140.372 18.856 141.452 20.776C142.556 22.672 143.108 24.868 143.108 27.364C143.108 29.836 142.556 32.032 141.452 33.952C140.372 35.872 138.824 37.36 136.808 38.416C134.816 39.472 132.5 40 129.86 40H120.392V14.728H129.86ZM129.464 34.672C131.792 34.672 133.604 34.036 134.9 32.764C136.196 31.492 136.844 29.692 136.844 27.364C136.844 25.036 136.196 23.224 134.9 21.928C133.604 20.632 131.792 19.984 129.464 19.984H126.548V34.672H129.464ZM170.953 22.72C170.497 21.88 169.837 21.244 168.973 20.812C168.133 20.356 167.137 20.128 165.985 20.128C163.993 20.128 162.397 20.788 161.197 22.108C159.997 23.404 159.397 25.144 159.397 27.328C159.397 29.656 160.021 31.48 161.269 32.8C162.541 34.096 164.281 34.744 166.489 34.744C168.001 34.744 169.273 34.36 170.305 33.592C171.361 32.824 172.129 31.72 172.609 30.28H164.797V25.744H178.189V31.468C177.733 33.004 176.953 34.432 175.849 35.752C174.769 37.072 173.389 38.14 171.709 38.956C170.029 39.772 168.133 40.18 166.021 40.18C163.525 40.18 161.293 39.64 159.325 38.56C157.381 37.456 155.857 35.932 154.753 33.988C153.673 32.044 153.133 29.824 153.133 27.328C153.133 24.832 153.673 22.612 154.753 20.668C155.857 18.7 157.381 17.176 159.325 16.096C161.269 14.992 163.489 14.44 165.985 14.44C169.009 14.44 171.553 15.172 173.617 16.636C175.705 18.1 177.085 20.128 177.757 22.72H170.953ZM194.487 40L189.231 30.46H187.755V40H181.599V14.728H191.931C193.923 14.728 195.615 15.076 197.007 15.772C198.423 16.468 199.479 17.428 200.175 18.652C200.871 19.852 201.219 21.196 201.219 22.684C201.219 24.364 200.739 25.864 199.779 27.184C198.843 28.504 197.451 29.44 195.603 29.992L201.435 40H194.487ZM187.755 26.104H191.571C192.699 26.104 193.539 25.828 194.091 25.276C194.667 24.724 194.955 23.944 194.955 22.936C194.955 21.976 194.667 21.22 194.091 20.668C193.539 20.116 192.699 19.84 191.571 19.84H187.755V26.104ZM220.816 35.536H211.384L209.872 40H203.428L212.572 14.728H219.7L228.844 40H222.328L220.816 35.536ZM219.232 30.784L216.1 21.532L213.004 30.784H219.232ZM250.887 22.864C250.887 24.328 250.551 25.672 249.879 26.896C249.207 28.096 248.175 29.068 246.783 29.812C245.391 30.556 243.663 30.928 241.599 30.928H237.783V40H231.627V14.728H241.599C243.615 14.728 245.319 15.076 246.711 15.772C248.103 16.468 249.147 17.428 249.843 18.652C250.539 19.876 250.887 21.28 250.887 22.864ZM241.131 26.032C242.307 26.032 243.183 25.756 243.759 25.204C244.335 24.652 244.623 23.872 244.623 22.864C244.623 21.856 244.335 21.076 243.759 20.524C243.183 19.972 242.307 19.696 241.131 19.696H237.783V26.032H241.131ZM260.247 19.66V24.772H268.491V29.524H260.247V35.068H269.571V40H254.091V14.728H269.571V19.66H260.247Z" fill="white"/>
</svg>
